<mxfile host="app.diagrams.net" modified="2024-07-19T14:35:42.816Z" agent="Mozilla/5.0 (Windows NT 10.0; Win64; x64) AppleWebKit/537.36 (KHTML, like Gecko) Chrome/126.0.0.0 Safari/537.36 Edg/126.0.0.0" version="24.6.4" etag="9-JHlhW6Nb7nn8Jld5uS" type="github">
  <diagram name="Page-1" id="z-sINTLh3VAWTppxFrzJ">
    <mxGraphModel>
      <root>
        <mxCell id="0" />
        <mxCell id="1" parent="0" />
      </root>
    </mxGraphModel>
  </diagram>
</mxfile>
